<?xml version="1.0" encoding="utf-8"?>
<!-- Generator: Adobe Illustrator 16.0.0, SVG Export Plug-In . SVG Version: 6.00 Build 0)  -->
<!DOCTYPE svg PUBLIC "-//W3C//DTD SVG 1.1//EN" "http://www.w3.org/Graphics/SVG/1.1/DTD/svg11.dtd">
<svg version="1.1" id="Capa_1" xmlns="http://www.w3.org/2000/svg" xmlns:xlink="http://www.w3.org/1999/xlink" x="0px" y="0px"
	 width="595.279px" height="841.891px" viewBox="0 0 595.279 841.891" enable-background="new 0 0 595.279 841.891"
	 xml:space="preserve">
<g>
	<g>
		<g>
			<path fill="#FFFFFF" d="M470.07,395.515c-1.828-1.845-4.34-2.971-7.114-2.971H430.34l3.536-44.789
				c0-5.566-4.5-10.061-10.049-10.061H92.715c-5.56,0-10.054,4.5-10.054,10.061l26.787,326.011c0,5.561,4.494,10.055,10.049,10.055
				h270.834c5.56,0,10.055-4.507,10.055-10.055L413.78,555.58h49.17c2.78,0,5.292-1.131,7.113-2.971
				c20.979-20.983,32.557-48.884,32.557-78.535C502.619,444.405,491.053,416.511,470.07,395.515z M380.277,663.695h-250.72
				L102.77,357.804h309.164L380.277,663.695z M458.497,535.441l-44.379,1.054l13.055-123.824h31.324
				c15.465,16.829,24.02,38.432,24.02,61.386S473.95,518.613,458.497,535.441z"/>
			<path fill="#FFFFFF" d="M201.169,291.329c-15.721-15.721-15.721-41.301,0-57.016c11.43-11.411,17.728-26.591,17.728-42.735
				c0-16.138-6.292-31.312-17.728-42.735l-14.227,14.221c7.625,7.625,11.828,17.751,11.828,28.514
				c0,10.757-4.209,20.894-11.828,28.508c-23.567,23.567-23.567,61.897,0,85.464L201.169,291.329z"/>
			<path fill="#FFFFFF" d="M267.93,290.811c-15.728-15.715-15.728-41.3,0-57.016c23.562-23.562,23.562-61.897,0-85.464
				l-14.233,14.227c15.722,15.715,15.722,41.3,0,57.016c-23.566,23.567-23.566,61.897,0,85.464L267.93,290.811z"/>
			<path fill="#FFFFFF" d="M334.655,290.555c-15.728-15.715-15.728-41.3,0-57.01c11.43-11.43,17.722-26.603,17.722-42.747
				c0-16.138-6.292-31.312-17.722-42.729l-14.221,14.228c7.625,7.62,11.822,17.745,11.822,28.502c0,10.774-4.197,20.9-11.822,28.52
				c-23.579,23.567-23.579,61.892,0,85.458L334.655,290.555z"/>
			<polygon fill="#FFFFFF" points="371.229,491.45 305.725,460.466 305.725,477.045 347.477,496.945 305.725,516.851 
				305.725,533.882 371.229,502.451 			"/>
			<polygon fill="#FFFFFF" points="284.86,448.399 265.603,448.399 215.372,547.704 234.493,547.723 			"/>
			<polygon fill="#FFFFFF" points="207.688,517.738 165.929,497.832 207.688,477.926 207.688,461.371 142.171,492.325 
				142.171,503.344 207.688,534.751 			"/>
		</g>
	</g>
</g>
</svg>
